# AST/ASF file generated using VICON BodyLanguage
# -----------------------------------------------
:version 1.10
:name VICON
:units
  mass 1.0
  length 0.45
  angle deg
:documentation
   .ast/.asf automatically generated from VICON data using
   VICON BodyBuilder and BodyLanguage model FoxedUp or BRILLIANT.MOD
:root
   order TX TY TZ RX RY RZ
   axis XYZ
   position 0 0 0  
   orientation 0 0 0 
:bonedata
  begin
     id 1 
     name lhipjoint
     direction 0.661853 -0.702389 0.261917 
     length 2.64193 
     axis 0 0 0  XYZ
  end
  begin
     id 2 
     name lfemur
     direction 0.34202 -0.939693 0  
     length 7.01722  
     axis 0 0 20  XYZ
    dof rx ry rz
    limits (-160.0 20.0)
           (-70.0 70.0)
           (-60.0 70.0)
  end
  begin
     id 3 
     name ltibia
     direction 0.34202 -0.939693 0   
     length 8.25008   
     axis 0 0 20   XYZ
    dof rx
    limits (-10.0 170.0)
  end
  begin
     id 4 
     name lfoot
     direction 0.0709916 -0.195048 0.978221   
     length 2.31941   
     axis -90 7.62852e-016 20   XYZ
    dof rx rz
    limits (-45.0 90.0)
           (-70.0 20.0)
  end
  begin
     id 5 
     name ltoes
     direction 1.53586e-011 -4.22017e-011 1   
     length 1.16486   
     axis -90 7.62852e-016 20   XYZ
    dof rx
    limits (-90.0 20.0)
  end
  begin
     id 6 
     name rhipjoint
     direction -0.638185 -0.721362 0.268992   
     length 2.57244  
     axis 0 0 0  XYZ 
  end
  begin
     id 7 
     name rfemur
     direction -0.34202 -0.939693 0   
     length 7.07017   
     axis 0 0 -20   XYZ
    dof rx ry rz
    limits (-160.0 20.0)
           (-70.0 70.0)
           (-70.0 60.0)
  end
  begin
     id 8 
     name rtibia
     direction -0.34202 -0.939693 0   
     length 8.20386   
     axis 0 0 -20   XYZ
    dof rx
    limits (-10.0 170.0)
 end
 begin
     id 9 
     name rfoot
     direction -0.0822429 -0.225961 0.970658   
     length 2.32215  
     axis -90 -7.62852e-016 -20   XYZ
    dof rx rz
    limits (-45.0 90.0)
           (-20.0 70.0)
  end
  begin
     id 10 
     name rtoes
     direction -1.53597e-011 -4.21689e-011 1   
     length 1.16333   
     axis -90 -7.62852e-016 -20   XYZ
    dof rx
    limits (-90.0 20.0)
  end
  begin
     id 11 
     name lowerback
     direction -0.0131557 0.998589 -0.0514484   
     length 2.14993   
     axis 0 0 0   XYZ
    dof rx ry rz
    limits (-20.0 45.0)
           (-30.0 30.0)
           (-30.0 30.0)
  end
  begin
     id 12 
     name upperback
     direction -0.000776481 0.999993 0.00352685   
     length 2.15301   
     axis 0 0 0   XYZ
    dof rx ry rz
    limits (-20.0 45.0)
           (-30.0 30.0)
           (-30.0 30.0)
  end
  begin
     id 13 
     name thorax
     direction 0.00438186 0.999609 0.0276143   
     length 2.15424   
     axis 0 0 0   XYZ
    dof rx ry rz
    limits (-20.0 45.0)
           (-30.0 30.0)
           (-30.0 30.0)
  end
  begin
     id 14 
     name lowerneck
     direction -0.0488006 0.998094 0.0377807   
     length 1.90481   
     axis 0 0 0   XYZ
    dof rx ry rz
    limits (-20.0 45.0)
           (-30.0 30.0)
           (-30.0 30.0)
  end
  begin
     id 15 
     name upperneck
     direction 0.0443769 0.990702 -0.12861   
     length 1.91305   
     axis 0 0 0   XYZ
    dof rx ry rz
    limits (-20.0 45.0)
           (-30.0 30.0)
           (-30.0 30.0)
  end
  begin
     id 16
     name head
     direction 0.0165599 0.998647 -0.0492982  
     length 1.92369  
     axis 0 0 0   XYZ
    dof rx ry rz
    limits (-20.0 45.0)
           (-30.0 30.0)
           (-30.0 30.0)
  end
  begin
     id 17 
     name lclavicle
     direction 0.911936 0.410197 -0.0105506  
     length 3.52622  
     axis 0 0 0   XYZ
    dof ry rz
    limits (-20.0 10.0)
           (0.0 20.0)
  end
  begin
     id 18 
     name lhumerus
     direction 1 -4.48974e-011 -2.48591e-028   
     length 5.47651   
     axis 180 -30 -90   XYZ
    dof rx ry rz
    limits (-60.0 90.0)
           (-90.0 90.0)
           (-90.0 90.0)
  end
  begin
     id 19
     name lradius
     direction 1 -4.48938e-011 -4.40099e-027   
     length 3.09058   
     axis 180 -30 -90   XYZ
    dof rx
    limits (-10.0 170.0)
  end
  begin
     id 20
     name lwrist
     direction 1 -4.49042e-011 -2.99852e-027   
     length 1.54529   
     axis 1.95339e-015 90 90   XYZ
    dof ry
    limits (-180.0 0.0)
 end
  begin
     id 21 
     name lhand
     direction 1 -4.48815e-011 -5.98193e-027   
     length 0.771611   
     axis 3.82337e-015 90 90   XYZ
    dof rx rz
    limits (-90.0 90.0)
           (-45.0 45.0)
  end
  begin
     id 22 
     name lfingers
     direction 1 -4.49034e-011 -1.1993e-026   
     length 0.622093   
     axis 7.64668e-015 90 90   XYZ
    dof rx
    limits (0.0 90.0)
  end
  begin
     id 23
     name lthumb
     direction 0.707107 -6.34867e-011 0.707107   
     length 0.893204   
     axis -90 45 -1.62303e-014   XYZ
    dof rx rz
    limits (-45.0 45.0)
           (-45.0 45.0)
  end
  begin
     id 24 
     name rclavicle
     direction -0.93442 0.355634 -0.0195692   
     length 3.62463  
     axis 0 0 0   XYZ 
    dof ry rz
    limits (-10.0 20.0)
           (-20.0 0.0)
  end
  begin
     id 25 
     name rhumerus
     direction -1 -4.48957e-011 -1.19147e-027  
     length 5.14182   
     axis 180 30 90   XYZ
    dof rx ry rz
    limits (-90.0 60.0)
           (-90.0 90.0)
           (-90.0 90.0)
  end
  begin
     id 26 
     name rradius
     direction -1 -4.48952e-011 -3.81062e-027   
     length 3.35565   
     axis 180 30 90   XYZ
    dof rx
    limits (-10.0 170.0)
  end
  begin
     id 27 
     name rwrist
     direction -1 -4.48973e-011 -2.99621e-027   
     length 1.67782   
     axis 1.95339e-015 -90 -90   XYZ
    dof ry
    limits (-180.0 0.0)
  end
  begin
     id 28
     name rhand
     direction -1 -4.48895e-011 -5.98727e-027   
     length 0.801042   
     axis 3.82337e-015 -90 -90   XYZ
    dof rx rz
    limits (-90.0 90.0)
           (-45.0 45.0)
  end
  begin
     id 29
     name rfingers
     direction -1 -4.49065e-011 -1.19972e-026   
     length 0.645821   
     axis 7.64668e-015 -90 -90   XYZ
    dof rx
    limits (0.0 90.0)
  end
  begin
     id 30
     name rthumb
     direction -0.707107 -6.34957e-011 0.707107   
     length 0.927273   
     axis -90 -45 1.62303e-014   XYZ
    dof rx rz
    limits (-45.0 45.0)
           (-45.0 45.0)
  end
:hierarchy
  begin
    root lhipjoint rhipjoint lowerback
    lhipjoint lfemur
    lfemur ltibia
    ltibia lfoot
    lfoot ltoes
    rhipjoint rfemur
    rfemur rtibia
    rtibia rfoot
    rfoot rtoes
    lowerback upperback
    upperback thorax
    thorax lowerneck lclavicle rclavicle
    lowerneck upperneck
    upperneck head
    lclavicle lhumerus
    lhumerus lradius
    lradius lwrist
    lwrist lhand lthumb
    lhand lfingers
    rclavicle rhumerus
    rhumerus rradius
    rradius rwrist
    rwrist rhand rthumb
    rhand rfingers
  end

#!OML:ASF E:\Style4\Style4.ASF
:FULLY-SPECIFIED
:DEGREES
283
root -0.00602045 16.9766 -2.02073 8.68139 -1.49917 2.65675
lowerback 12.8078 1.34371 -3.06002
upperback 2.77135 1.32752 -0.811319
thorax -4.31472 0.683762 0.6612
lowerneck 4.89822 -3.53979 -7.14138
upperneck 2.16426 -5.08316 4.81377
head 0.165579 -2.61008 2.83167
rclavicle -1.37907e-014 1.28713e-014
rhumerus -36.8406 19.8774 -82.0555
rradius 86.5596
rwrist 7.78513
rhand -35.1331 29.1859
rfingers 7.12502
rthumb -8.27322 -0.632081
lclavicle -1.37907e-014 1.28713e-014
lhumerus -39.9223 -21.8156 83.552
lradius 93.2937
lwrist -9.63692
lhand -28.5692 21.4716
lfingers 7.12502
lthumb -1.93567 51.4426
rfemur -33.9266 -1.26147 15.2651
rtibia 52.6179
rfoot -25.2634 -13.3098
rtoes -13.7602
lfemur -32.1819 1.09952 -22.1109
ltibia 50.7224
lfoot -25.7538 5.99218
ltoes -15.5654
284
root -0.00518828 16.9153 -2.04526 9.03399 -1.27216 2.70752
lowerback 12.8011 1.27441 -3.05508
upperback 2.75957 1.237 -0.810852
thorax -4.32015 0.63941 0.673791
lowerneck 4.92272 -3.55254 -7.13808
upperneck 2.04401 -5.0993 4.82569
head 0.124357 -2.61736 2.83749
rclavicle -3.85145e-015 3.67752e-015
rhumerus -36.6679 19.8936 -82.1234
rradius 86.3499
rwrist 7.44113
rhand -35.0344 29.4833
rfingers 7.12502
rthumb -8.17794 -0.338455
lclavicle -3.85145e-015 3.67752e-015
lhumerus -39.8526 -21.9481 83.8696
lradius 92.9125
lwrist -9.09635
lhand -28.6158 21.4155
lfingers 7.12502
lthumb -1.98068 51.386
rfemur -34.9922 -1.43231 15.2461
rtibia 53.7244
rfoot -25.6075 -13.3866
rtoes -13.3637
lfemur -33.3142 0.854376 -22.1536
ltibia 51.7965
lfoot -25.93 5.97429
ltoes -15.3097
285
root -0.00488831 16.858 -2.06638 9.28554 -1.08996 2.75767
lowerback 12.8916 1.23957 -3.05711
upperback 2.75556 1.18669 -0.819209
thorax -4.37204 0.615256 0.672747
lowerneck 4.91257 -3.6336 -7.09039
upperneck 2.01869 -5.20339 4.81919
head 0.123411 -2.66858 2.82684
rclavicle 1.07095e-014 -6.85807e-015
rhumerus -36.5864 19.8399 -82.2251
rradius 86.1574
rwrist 7.16207
rhand -34.9678 29.7149
rfingers 7.12502
rthumb -8.11366 -0.109315
lclavicle 1.07095e-014 -6.85807e-015
lhumerus -39.7578 -22.1615 84.1386
lradius 92.5309
lwrist -8.63115
lhand -28.5027 21.379
lfingers 7.12502
lthumb -1.87145 51.3505
rfemur -35.8948 -1.58248 15.2267
rtibia 54.7385
rfoot -25.876 -13.5584
rtoes -13.4062
lfemur -34.2532 0.672252 -22.2019
ltibia 52.8121
lfoot -26.1953 6.06917
ltoes -15.6687
286
root -0.0037941 16.8054 -2.09002 9.42814 -0.877759 2.77388
lowerback 13.0849 1.19869 -2.98469
upperback 2.80588 1.13555 -0.826486
thorax -4.42189 0.589326 0.630013
lowerneck 4.82239 -3.68825 -7.01513
upperneck 2.04187 -5.26679 4.80786
head 0.148118 -2.69884 2.80647
rclavicle -5.24295e-015 2.08724e-015
rhumerus -36.4128 19.7616 -82.3197
rradius 85.9423
rwrist 6.9596
rhand -35.0786 29.6989
rfingers 7.12502
rthumb -8.22066 -0.121166
lclavicle -5.24295e-015 2.08724e-015
lhumerus -39.5696 -22.4194 84.317
lradius 92.1748
lwrist -8.23203
lhand -28.3826 21.4065
lfingers 7.12502
lthumb -1.75542 51.379
rfemur -36.6726 -1.74595 15.2482
rtibia 55.6798
rfoot -26.0045 -13.8925
rtoes -14.4854
lfemur -35.0486 0.4424 -22.2047
ltibia 53.7647
lfoot -26.5326 6.19544
ltoes -16.2246
287
root -0.0052181 16.7562 -2.11289 9.56717 -0.894626 2.69859
lowerback 13.2375 1.24014 -2.89195
upperback 2.85885 1.19708 -0.84011
thorax -4.44981 0.618211 0.551005
lowerneck 4.81578 -3.68241 -6.93086
upperneck 1.94008 -5.2527 4.83818
head 0.114483 -2.69054 2.80236
rclavicle 1.24986e-014 -1.09332e-015
rhumerus -36.2244 19.6852 -82.4307
rradius 85.7553
rwrist 6.75341
rhand -35.2299 29.6896
rfingers 7.12502
rthumb -8.36661 -0.124712
lclavicle 1.24986e-014 -1.09332e-015
lhumerus -39.3751 -22.714 84.4901
lradius 91.7826
lwrist -7.90606
lhand -28.258 21.5004
lfingers 7.12502
lthumb -1.63513 51.4739
rfemur -37.4492 -1.66628 15.3312
rtibia 56.5741
rfoot -26.2131 -14.017
rtoes -14.7314
lfemur -35.794 0.429961 -22.1349
ltibia 54.6606
lfoot -26.8402 6.21854
ltoes -16.0991
288
root -0.00804806 16.7081 -2.1325 9.63917 -1.22026 2.69921
lowerback 13.45 1.36743 -3.04256
upperback 2.90364 1.33568 -0.845367
thorax -4.52648 0.688082 0.602988
lowerneck 4.69474 -3.71981 -6.9735
upperneck 1.97078 -5.29757 4.85961
head 0.149885 -2.71225 2.81391
rclavicle -1.14798e-014 -1.68967e-015
rhumerus -36.0829 19.7844 -82.5524
rradius 85.5564
rwrist 6.51381
rhand -35.5012 29.6773
rfingers 7.12502
rthumb -8.62842 -0.126327
lclavicle -1.14798e-014 -1.68967e-015
lhumerus -39.3138 -22.8219 84.7008
lradius 91.4332
lwrist -7.71693
lhand -28.0391 21.4927
lfingers 7.12502
lthumb -1.42367 51.4677
rfemur -38.1112 -1.32575 15.2762
rtibia 57.4584
rfoot -26.6203 -13.7445
rtoes -13.6236
lfemur -36.3773 0.690235 -22.201
ltibia 55.4976
lfoot -27.1469 6.28898
ltoes -15.9314
